{
	"asset":{
		"generator":"Khronos glTF Blender I/O v3.6.27",
		"version":"2.0"
	},
	"scene":0,
	"scenes":[
		{
			"name":"Scene",
			"nodes":[
				0
			]
		}
	],
	"nodes":[
		{
			"mesh":0,
			"name":"Cube",
			"scale":[
				0.7642658352851868,
				0.13771852850914001,
				2.028162717819214
			]
		}
	],
	"materials":[
		{
			"doubleSided":true,
			"name":"Material.001",
			"normalTexture":{
				"index":0
			},
			"pbrMetallicRoughness":{
				"baseColorTexture":{
					"index":1
				},
				"metallicFactor":0.804347813129425,
				"roughnessFactor":0.09782609343528748
			}
		}
	],
	"meshes":[
		{
			"name":"Cube.001",
			"primitives":[
				{
					"attributes":{
						"POSITION":0,
						"NORMAL":1,
						"TEXCOORD_0":2
					},
					"indices":3,
					"material":0
				}
			]
		}
	],
	"textures":[
		{
			"sampler":0,
			"source":0
		},
		{
			"sampler":0,
			"source":1
		}
	],
	"images":[
		{
			"bufferView":4,
			"mimeType":"image/png",
			"name":"boomer normal map"
		},
		{
			"bufferView":5,
			"mimeType":"image/jpeg",
			"name":"boomer"
		}
	],
	"accessors":[
		{
			"bufferView":0,
			"componentType":5126,
			"count":3744,
			"max":[
				1,
				1,
				1
			],
			"min":[
				-1,
				-1,
				-1
			],
			"type":"VEC3"
		},
		{
			"bufferView":1,
			"componentType":5126,
			"count":3744,
			"type":"VEC3"
		},
		{
			"bufferView":2,
			"componentType":5126,
			"count":3744,
			"type":"VEC2"
		},
		{
			"bufferView":3,
			"componentType":5123,
			"count":20724,
			"type":"SCALAR"
		}
	],
	"bufferViews":[
		{
			"buffer":0,
			"byteLength":44928,
			"byteOffset":0,
			"target":34962
		},
		{
			"buffer":0,
			"byteLength":44928,
			"byteOffset":44928,
			"target":34962
		},
		{
			"buffer":0,
			"byteLength":29952,
			"byteOffset":89856,
			"target":34962
		},
		{
			"buffer":0,
			"byteLength":41448,
			"byteOffset":119808,
			"target":34963
		},
		{
			"buffer":0,
			"byteLength":1892075,
			"byteOffset":161256
		},
		{
			"buffer":0,
			"byteLength":837686,
			"byteOffset":2053332
		}
	],
	"samplers":[
		{
			"magFilter":9729,
			"minFilter":9987
		}
	],
	"buffers":[
		{
			"byteLength":2891020,
			"uri":"data:application/octet-stream;base64,"
		}
	]
}
