{
	"asset":{
		"generator":"Khronos glTF Blender I/O v3.6.27",
		"version":"2.0"
	},
	"extensionsUsed":[
		"KHR_materials_specular",
		"KHR_materials_ior"
	],
	"scene":0,
	"scenes":[
		{
			"name":"Scene",
			"nodes":[
				4
			]
		}
	],
	"nodes":[
		{
			"mesh":0,
			"name":"Sphere.001",
			"scale":[
				0.9501131176948547,
				0.9501131176948547,
				0.9501129984855652
			]
		},
		{
			"mesh":1,
			"name":"Sphere.002",
			"scale":[
				0.9501131176948547,
				0.9501131176948547,
				0.9501129984855652
			]
		},
		{
			"mesh":2,
			"name":"Sphere.003"
		},
		{
			"mesh":3,
			"name":"Sphere.004",
			"scale":[
				0.9501131176948547,
				0.9501131176948547,
				0.9501129984855652
			]
		},
		{
			"children":[
				0,
				1,
				2,
				3
			],
			"mesh":4,
			"name":"Sphere",
			"rotation":[
				0.6991304755210876,
				0.02190294861793518,
				0.004916869103908539,
				0.7146416306495667
			],
			"scale":[
				7.135298728942871,
				7.135298252105713,
				7.135298728942871
			],
			"translation":[
				0.9289992451667786,
				-3.0345358848571777,
				-6.658808708190918
			]
		}
	],
	"materials":[
		{
			"doubleSided":true,
			"extensions":{
				"KHR_materials_specular":{
					"specularColorFactor":[
						1.2180154711244064,
						1.2180154711244064,
						1.2180154711244064
					]
				},
				"KHR_materials_ior":{
					"ior":1.4500000476837158
				}
			},
			"name":"Metal 04",
			"pbrMetallicRoughness":{}
		},
		{
			"doubleSided":true,
			"emissiveFactor":[
				0.5070598125457764,
				0.5070598125457764,
				0.5070598125457764
			],
			"name":"Material.003",
			"pbrMetallicRoughness":{
				"baseColorFactor":[
					0.800000011920929,
					0.800000011920929,
					0.800000011920929,
					1
				],
				"roughnessFactor":0.4420289993286133
			}
		},
		{
			"doubleSided":true,
			"name":"Flawed Gold Texture",
			"pbrMetallicRoughness":{
				"baseColorFactor":[
					0.7991028428077698,
					0.4125423729419708,
					0.06480339169502258,
					1
				]
			}
		},
		{
			"doubleSided":true,
			"name":"Sci fi material",
			"pbrMetallicRoughness":{}
		}
	],
	"meshes":[
		{
			"name":"Sphere.001",
			"primitives":[
				{
					"attributes":{
						"POSITION":0,
						"NORMAL":1,
						"TEXCOORD_0":2,
						"TEXCOORD_1":3
					},
					"indices":4,
					"material":0
				}
			]
		},
		{
			"name":"Sphere.002",
			"primitives":[
				{
					"attributes":{
						"POSITION":5,
						"NORMAL":6,
						"TEXCOORD_0":7
					},
					"indices":8,
					"material":1
				}
			]
		},
		{
			"name":"Sphere.003",
			"primitives":[
				{
					"attributes":{
						"POSITION":9,
						"NORMAL":10,
						"TEXCOORD_0":11,
						"TEXCOORD_1":12
					},
					"indices":13,
					"material":2
				}
			]
		},
		{
			"name":"Sphere.004",
			"primitives":[
				{
					"attributes":{
						"POSITION":14,
						"NORMAL":15,
						"TEXCOORD_0":16,
						"TEXCOORD_1":17
					},
					"indices":18,
					"material":1
				}
			]
		},
		{
			"name":"Sphere",
			"primitives":[
				{
					"attributes":{
						"POSITION":19,
						"NORMAL":20,
						"TEXCOORD_0":21,
						"TEXCOORD_1":22
					},
					"indices":23,
					"material":3
				}
			]
		}
	],
	"accessors":[
		{
			"bufferView":0,
			"componentType":5126,
			"count":662,
			"max":[
				0.9999997019767761,
				1,
				0.9999993443489075
			],
			"min":[
				-0.9999990463256836,
				-1,
				-1
			],
			"type":"VEC3"
		},
		{
			"bufferView":1,
			"componentType":5126,
			"count":662,
			"type":"VEC3"
		},
		{
			"bufferView":2,
			"componentType":5126,
			"count":662,
			"type":"VEC2"
		},
		{
			"bufferView":3,
			"componentType":5126,
			"count":662,
			"type":"VEC2"
		},
		{
			"bufferView":4,
			"componentType":5123,
			"count":2880,
			"type":"SCALAR"
		},
		{
			"bufferView":5,
			"componentType":5126,
			"count":892,
			"max":[
				0.3249785900115967,
				1.0093891620635986,
				0.3249785006046295
			],
			"min":[
				-0.32497844099998474,
				0.9440317749977112,
				-0.32497841119766235
			],
			"type":"VEC3"
		},
		{
			"bufferView":6,
			"componentType":5126,
			"count":892,
			"type":"VEC3"
		},
		{
			"bufferView":7,
			"componentType":5126,
			"count":892,
			"type":"VEC2"
		},
		{
			"bufferView":8,
			"componentType":5123,
			"count":3072,
			"type":"SCALAR"
		},
		{
			"bufferView":9,
			"componentType":5126,
			"count":2345,
			"max":[
				0.9851598739624023,
				0.9190155863761902,
				0.9872307181358337
			],
			"min":[
				-0.9851593971252441,
				-0.9803744554519653,
				0.07022466510534286
			],
			"type":"VEC3"
		},
		{
			"bufferView":10,
			"componentType":5126,
			"count":2345,
			"type":"VEC3"
		},
		{
			"bufferView":11,
			"componentType":5126,
			"count":2345,
			"type":"VEC2"
		},
		{
			"bufferView":12,
			"componentType":5126,
			"count":2345,
			"type":"VEC2"
		},
		{
			"bufferView":13,
			"componentType":5123,
			"count":11568,
			"type":"SCALAR"
		},
		{
			"bufferView":14,
			"componentType":5126,
			"count":256,
			"max":[
				0.16362647712230682,
				1.042582631111145,
				0.16362640261650085
			],
			"min":[
				-0.16362635791301727,
				0.9807852506637573,
				-0.1636263132095337
			],
			"type":"VEC3"
		},
		{
			"bufferView":15,
			"componentType":5126,
			"count":256,
			"type":"VEC3"
		},
		{
			"bufferView":16,
			"componentType":5126,
			"count":256,
			"type":"VEC2"
		},
		{
			"bufferView":17,
			"componentType":5126,
			"count":256,
			"type":"VEC2"
		},
		{
			"bufferView":18,
			"componentType":5123,
			"count":948,
			"type":"SCALAR"
		},
		{
			"bufferView":19,
			"componentType":5126,
			"count":2328,
			"max":[
				0.9851599931716919,
				0.9190155863761902,
				-0.07022473961114883
			],
			"min":[
				-0.9851593971252441,
				-0.9803744554519653,
				-0.9872310161590576
			],
			"type":"VEC3"
		},
		{
			"bufferView":20,
			"componentType":5126,
			"count":2328,
			"type":"VEC3"
		},
		{
			"bufferView":21,
			"componentType":5126,
			"count":2328,
			"type":"VEC2"
		},
		{
			"bufferView":22,
			"componentType":5126,
			"count":2328,
			"type":"VEC2"
		},
		{
			"bufferView":23,
			"componentType":5123,
			"count":11568,
			"type":"SCALAR"
		}
	],
	"bufferViews":[
		{
			"buffer":0,
			"byteLength":7944,
			"byteOffset":0,
			"target":34962
		},
		{
			"buffer":0,
			"byteLength":7944,
			"byteOffset":7944,
			"target":34962
		},
		{
			"buffer":0,
			"byteLength":5296,
			"byteOffset":15888,
			"target":34962
		},
		{
			"buffer":0,
			"byteLength":5296,
			"byteOffset":21184,
			"target":34962
		},
		{
			"buffer":0,
			"byteLength":5760,
			"byteOffset":26480,
			"target":34963
		},
		{
			"buffer":0,
			"byteLength":10704,
			"byteOffset":32240,
			"target":34962
		},
		{
			"buffer":0,
			"byteLength":10704,
			"byteOffset":42944,
			"target":34962
		},
		{
			"buffer":0,
			"byteLength":7136,
			"byteOffset":53648,
			"target":34962
		},
		{
			"buffer":0,
			"byteLength":6144,
			"byteOffset":60784,
			"target":34963
		},
		{
			"buffer":0,
			"byteLength":28140,
			"byteOffset":66928,
			"target":34962
		},
		{
			"buffer":0,
			"byteLength":28140,
			"byteOffset":95068,
			"target":34962
		},
		{
			"buffer":0,
			"byteLength":18760,
			"byteOffset":123208,
			"target":34962
		},
		{
			"buffer":0,
			"byteLength":18760,
			"byteOffset":141968,
			"target":34962
		},
		{
			"buffer":0,
			"byteLength":23136,
			"byteOffset":160728,
			"target":34963
		},
		{
			"buffer":0,
			"byteLength":3072,
			"byteOffset":183864,
			"target":34962
		},
		{
			"buffer":0,
			"byteLength":3072,
			"byteOffset":186936,
			"target":34962
		},
		{
			"buffer":0,
			"byteLength":2048,
			"byteOffset":190008,
			"target":34962
		},
		{
			"buffer":0,
			"byteLength":2048,
			"byteOffset":192056,
			"target":34962
		},
		{
			"buffer":0,
			"byteLength":1896,
			"byteOffset":194104,
			"target":34963
		},
		{
			"buffer":0,
			"byteLength":27936,
			"byteOffset":196000,
			"target":34962
		},
		{
			"buffer":0,
			"byteLength":27936,
			"byteOffset":223936,
			"target":34962
		},
		{
			"buffer":0,
			"byteLength":18624,
			"byteOffset":251872,
			"target":34962
		},
		{
			"buffer":0,
			"byteLength":18624,
			"byteOffset":270496,
			"target":34962
		},
		{
			"buffer":0,
			"byteLength":23136,
			"byteOffset":289120,
			"target":34963
		}
	],
	"buffers":[
		{
			"byteLength":312256,
			"uri":"data:application/octet-stream;base64,"
		}
	]
}
